<?xml version="1.0" standalone="no"?>
<!DOCTYPE svg PUBLIC "-//W3C//DTD SVG 20010904//EN"
 "http://www.w3.org/TR/2001/REC-SVG-20010904/DTD/svg10.dtd">
<svg version="1.0" xmlns="http://www.w3.org/2000/svg"
 width="512.000000pt" height="512.000000pt" viewBox="0 0 512.000000 512.000000"
 preserveAspectRatio="xMidYMid meet">

<g transform="translate(0.000000,512.000000) scale(0.100000,-0.100000)"
fill="#000000" stroke="none">
<path d="M1960 5090 c-41 -16 -232 -87 -424 -159 -400 -149 -463 -182 -601
-313 -146 -139 -231 -276 -292 -474 l-27 -89 -4 -421 -3 -421 318 -80 318 -79
3 -207 2 -207 -175 0 -175 0 0 -1128 0 -1127 193 -193 192 -192 1270 0 1271 0
192 193 192 193 0 1127 0 1127 -170 0 -170 0 2 207 3 207 318 79 318 80 -3
416 c-4 461 -5 469 -79 647 -94 225 -318 450 -540 540 -35 15 -232 89 -437
165 l-374 139 -521 -1 -522 0 -75 -29z m900 -383 l0 -112 -155 -155 -155 -155
-155 155 -155 155 0 112 0 113 310 0 310 0 0 -113z m695 -84 c127 -47 260
-102 297 -124 170 -100 296 -271 342 -464 14 -58 16 -115 14 -330 l-3 -260
-165 -40 -165 -41 -3 243 -2 243 -150 0 -150 0 0 -605 0 -605 -1010 0 -1010 0
0 605 0 605 -150 0 -150 0 0 -244 0 -244 -168 42 -167 42 -3 260 c-2 214 0
271 14 329 44 189 168 359 333 459 43 26 654 266 678 266 2 0 3 -66 3 -148 l0
-147 230 -230 230 -230 0 -232 0 -233 150 0 150 0 0 238 0 237 230 230 230
230 0 147 0 147 83 -30 c45 -17 186 -69 312 -116z m-1525 -2514 c0 -178 4
-245 16 -293 60 -233 272 -398 512 -398 94 0 156 15 242 56 81 39 185 140 227
221 55 106 63 157 63 414 l0 231 410 0 410 0 0 -912 0 -913 -107 -107 -108
-108 -1140 0 -1140 0 -107 107 -108 108 0 912 0 913 415 0 415 0 0 -231z m760
8 c0 -220 0 -224 -26 -275 -83 -166 -325 -166 -408 0 -26 51 -26 55 -26 275
l0 223 230 0 230 0 0 -223z"/>
</g>
</svg>
