<svg width="466.99999999999994" height="512.22" xmlns="http://www.w3.org/2000/svg" clip-rule="evenodd" fill-rule="evenodd" image-rendering="optimizeQuality" text-rendering="geometricPrecision" shape-rendering="geometricPrecision">

 <g>
  <title>Layer 1</title>
  <path fill="#7AD6CA" id="svg_1" d="m131.07,372.11c0.37,1 0.57,2.08 0.57,3.2c0,1.13 -0.2,2.21 -0.57,3.21l0,75.91c0,10.74 4.41,20.53 11.5,27.62s16.87,11.49 27.62,11.49l239.02,0c10.75,0 20.53,-4.4 27.62,-11.49s11.49,-16.88 11.49,-27.62l0,-302.01c0,-10.55 -4.21,-20.15 -11.02,-27.18l-0.47,-0.43c-7.09,-7.09 -16.87,-11.5 -27.62,-11.5l-239.02,0c-10.75,0 -20.53,4.41 -27.62,11.5s-11.5,16.87 -11.5,27.61l0,219.69zm-18.67,12.54l-55.17,0c-15.82,0 -30.1,-6.58 -40.45,-17.11c-10.37,-10.57 -16.78,-25.14 -16.78,-41.02l0,-268.73c0,-15.86 6.5,-30.3 16.97,-40.78l0.04,-0.04c10.5,-10.48 24.93,-16.97 40.78,-16.97l243.63,0c15.87,0 30.3,6.51 40.77,16.98l0.03,0.03c10.48,10.48 16.99,24.93 16.99,40.78l0,36.85l50,0c15.9,0 30.36,6.5 40.82,16.96l0.54,0.58c10.15,10.44 16.43,24.66 16.43,40.24l0,302.01c0,15.9 -6.5,30.36 -16.96,40.82c-10.47,10.47 -24.93,16.97 -40.83,16.97l-239.02,0c-15.9,0 -30.35,-6.5 -40.82,-16.97c-10.47,-10.46 -16.97,-24.92 -16.97,-40.82l0,-69.78zm228.14,-290.01l0,-36.85c0,-10.74 -4.41,-20.53 -11.5,-27.63c-7.09,-7.08 -16.86,-11.48 -27.62,-11.48l-243.63,0c-10.78,0 -20.56,4.38 -27.62,11.45l-0.04,0.04c-7.06,7.06 -11.45,16.84 -11.45,27.62l0,268.73c0,10.86 4.34,20.79 11.38,27.97c6.95,7.07 16.54,11.49 27.17,11.49l55.17,0l0,-213.56c0,-15.9 6.5,-30.35 16.97,-40.82c10.47,-10.47 24.92,-16.96 40.82,-16.96l170.35,0z" fill-rule="nonzero"/>
 </g>
</svg>