<svg id="Layer_1" data-name="Layer 1" xmlns="http://www.w3.org/2000/svg" viewBox="0 0 122.88 94.24"><defs><style>.cls-1{fill:#ffe256;fill-rule:evenodd;}</style></defs><title>merchandise</title><path d="M59.51,74.33a2.15,2.15,0,0,1,0-4.29H76.83a2.15,2.15,0,1,1,0,4.29ZM68.17,36.7a13.24,13.24,0,0,1,9.37,3.88l0,0a13.22,13.22,0,0,1,0,18.72l0,0a13.22,13.22,0,0,1-18.72,0l0,0a13.24,13.24,0,0,1,0-18.72l0,0a13.22,13.22,0,0,1,9.35-3.87ZM83.24,4.11H53.1c1.66,18.28,28.6,18.05,30.14,0ZM21.73,33l14.75.64a2.05,2.05,0,0,1,2,1.92.49.49,0,0,1,0,.12V42.9h-4.1V37.65h0L20.12,37a2,2,0,0,1-1.25-.42s0,0-.05,0a2.09,2.09,0,0,1-.7-1.09L13.53,17.07a.64.64,0,0,0,0-.07,2,2,0,0,1,.18-1.35,2,2,0,0,1,1.05-1L49.82.22A2.3,2.3,0,0,1,51,0H85.34a3.78,3.78,0,0,1,1.57.16L121.6,14.32l.05,0a2.07,2.07,0,0,1,1.19,2.31L118.77,35.6s0,0,0,.08a2,2,0,0,1-.69,1.07,2.07,2.07,0,0,1-1.28.47l-14.24.15V92.18a2.07,2.07,0,0,1-.61,1.45h0a2,2,0,0,1-1.45.61H54.31l-.39-4.12h44.5V35.34a2.05,2.05,0,0,1,2-2.05c4.87,0,9.76-.11,14.63-.16l3.37-15.66L87.3,4.74C85,27.37,51.64,27.54,49.06,5L17.93,17.79,21.73,33ZM34.54,93a1.9,1.9,0,0,1-.19-.86V91l.19,2Z"/><path class="cls-1" d="M68.17,40.41A9.55,9.55,0,1,1,58.62,50a9.55,9.55,0,0,1,9.55-9.55Z"/><path d="M18.18,54.16h8.08a5.61,5.61,0,0,0-.65,2.61,6,6,0,0,0,.08.95h-7a5,5,0,0,0,.08-.95,5.48,5.48,0,0,0-.64-2.61Zm-4.25-.72V52h0a8.28,8.28,0,0,1,8.25-8.26h0A8.28,8.28,0,0,1,30.46,52h0v1.49a2.51,2.51,0,1,0,2.12.25V52h0A10.4,10.4,0,0,0,22.2,41.63h0A10.38,10.38,0,0,0,11.83,52h0v1.87a2.53,2.53,0,1,0,2.11-.43Zm-8.65.72H8.44a5.49,5.49,0,0,0-.66,2.61,6,6,0,0,0,.08.95H6.31l-2.67,33H41.46l-2.68-33H36.57a6,6,0,0,0,.08-.95A5.49,5.49,0,0,0,36,54.16h3.81a2.4,2.4,0,0,1,1.7.71,2.57,2.57,0,0,1,.74,1.62l2.83,35.17c0,.08,0,.14,0,.17a2.35,2.35,0,0,1-.72,1.69,2.49,2.49,0,0,1-1.56.71H2.28a2.46,2.46,0,0,1-1.56-.71A2.35,2.35,0,0,1,0,91.83a1.23,1.23,0,0,1,0-.17L2.84,56.48a2.47,2.47,0,0,1,.74-1.61,2.42,2.42,0,0,1,1.7-.71ZM17.69,84.87a1.2,1.2,0,0,1,0-2.4H27.4a1.2,1.2,0,0,1,0,2.4Zm4.85-21.08A7.41,7.41,0,0,1,27.79,66h0a7.42,7.42,0,0,1,0,10.51l-.13.13a7.43,7.43,0,1,1-5.13-12.81Z"/><path class="cls-1" d="M22.54,65.87a5.35,5.35,0,1,1-5.35,5.35,5.35,5.35,0,0,1,5.35-5.35Z"/></svg>