<?xml version="1.0" ?><svg width="96px" height="96px" viewBox="0 0 96 96" style="enable-background:new 0 0 96 96;" version="1.1" xml:space="preserve" xmlns="http://www.w3.org/2000/svg" xmlns:xlink="http://www.w3.org/1999/xlink"><style type="text/css">
	.st0{display:none;}
	.st1{fill:#FFFFFF;}
	.st2{fill:none;stroke:#000000;stroke-width:2;stroke-linecap:round;stroke-linejoin:round;stroke-miterlimit:10;}
	.st3{fill:#FFF8FA;}
	.st4{stroke:#000000;stroke-width:2;stroke-miterlimit:10;}
	.st5{fill:none;stroke:#000000;stroke-miterlimit:10;}
	.st6{fill:none;stroke:#000000;stroke-width:2;stroke-linecap:round;stroke-miterlimit:10;}
	.st7{fill:#231F20;stroke:#000000;stroke-width:0;stroke-miterlimit:10;}
	.st8{fill:#FF0D5C;}
	.st9{display:inline;}
	.st10{fill:none;stroke:#00D8E9;stroke-width:0.25;stroke-linecap:round;stroke-linejoin:round;stroke-miterlimit:10;}
	.st11{fill:none;stroke:#00D8E9;stroke-width:0.25;stroke-linejoin:round;stroke-miterlimit:10;}
	.st12{fill:none;stroke:#00D8E9;stroke-linecap:round;stroke-linejoin:round;stroke-miterlimit:10;}
	.st13{fill:none;stroke:#00D8E9;stroke-linejoin:round;stroke-miterlimit:10;}
</style><g id="banana"/><g id="Layer_12"/><g id="grape"/><g id="assasin"/><g id="gold"/><g id="mage_ass"/><g id="fighter"/><g id="SUPPORT"/><g id="marksman"/><g id="JUNGLE"/><g id="TANK"/><g class="st0" id="creditcard"/><g class="st0" id="CAKE"/><g class="st0" id="TOPI"/><g class="st0" id="SPATU"/><g class="st0" id="SETTING"/><g class="st0" id="CART"/><g class="st0" id="k3"/><g class="st0" id="computer"/><g class="st0" id="phone"/><g class="st0" id="location"/><g id="koper"><g id="Layer_29"/><g><path class="st4" d="M48.5,25.3c0.7,0,1,0.3,1,0.3l0,18.8c0,0.1-0.4,0.4-1,0.4h-0.1c-0.6,0-0.9-0.3-1-0.3l0-18.9    C47.5,25.5,47.9,25.3,48.5,25.3z"/><path class="st4" d="M48,74.4c-11.6,0-21.1-9.5-21.1-21.1c0-8.3,4.3-15.5,11.2-19c0.1,0,0.2-0.1,0.3-0.1c0.1,0,0.1,0,0.2,0    c0.2,0.1,0.3,0.2,0.4,0.4c0.1,0.2,0.1,0.4,0,0.5c-0.1,0.2-0.2,0.3-0.4,0.4c-6.4,3.2-10.4,10-10.4,17.7c0,10.9,8.8,19.7,19.7,19.7    s19.7-8.8,19.7-19.7c0-7.7-4-14.4-10.3-17.7c-0.3-0.2-0.5-0.6-0.3-0.9c0.2-0.3,0.6-0.5,0.9-0.3c6.8,3.5,11.1,10.7,11.1,18.9    C69.1,65,59.6,74.4,48,74.4z"/></g></g><g class="st0" id="guide"/><g id="MAGICAL"/><g id="phisical"/><g id="mango"/><g id="orange"/></svg>