<?xml version="1.0" encoding="utf-8"?><svg version="1.1" id="Layer_1" xmlns="http://www.w3.org/2000/svg" xmlns:xlink="http://www.w3.org/1999/xlink" x="0px" y="0px" viewBox="0 0 114 122.88" style="enable-background:new 0 0 114 122.88" xml:space="preserve"><style type="text/css">.st0{fill-rule:evenodd;clip-rule:evenodd;}</style><g><path class="st0" d="M20.46,59.44c4.28,0.03,6.55-0.36,9.43,0.15c9.23,1.63,15.6,6.68,21.85,19.34c4.24,8.59-1.23,26.81-4.49,35.67 l-2.39,5.1c0,4.02,7.17,4.46,8.37,0c1.02-3.18,1.92-5.61,2.71-7.78c3.21-8.82,3.59-14.08,4.78-22.92c0.48-3.55,1.29-7.15,2.96-8.73 c4.17-3.93,7.41-11.15,12.85-14.93c3.75-2.6,11.17-3.09,18.21-3.23c0.06-2.12-1.19-3.58-3.04-4.24c-8.15-3.5-16.14-0.76-24.07,4.89 c-1.85,1.31-1.5,1.61-2.42-0.73c-1.68-4.26-2.53-9.67-2.19-16.71c-0.27-1.66-0.15-2.89-1.43-4.08c-0.45-0.42-0.86-0.58-1.22-0.44 c-0.89,0.35-1.58,3.75-1.92,4.86c-0.41,1.39-3.3,12.6-4.8,15.62c-0.64,1.29-0.67,0.66-1.21-0.11 C47.57,54.13,28.19,43.52,20.46,59.44L20.46,59.44z M35.7,24.8c-0.09,0.24-0.2,0.46-0.34,0.66c0.03,1.83,0.36,3.72,0.85,5.54 c0.79,2.96,2.01,5.73,3.08,7.84c0.67,1.32,0.15,2.94-1.18,3.61c-1.32,0.67-2.94,0.15-3.61-1.18c-1.2-2.36-2.57-5.49-3.48-8.89 c-0.47-1.77-0.82-3.61-0.96-5.47C18.8,26.62,11.55,31.2,8.01,37.5c-1.59,2.84-2.46,6.02-2.62,9.27c-0.16,3.28,0.39,6.62,1.64,9.73 c3.09,7.72,10.48,14.01,21.82,14.4c1.48,0.05,2.64,1.28,2.59,2.76c-0.05,1.48-1.28,2.64-2.76,2.59 C14.89,75.77,5.86,68.01,2.05,58.49c-1.53-3.83-2.21-7.94-2.01-11.98c0.2-4.07,1.29-8.07,3.29-11.64 c4.56-8.11,13.75-13.97,27.85-13.3C37.02,6.54,48.13,0.41,59.46,0.02c7.42-0.25,14.91,2.02,21,5.9 c6.18,3.93,10.97,9.55,12.91,15.92c0.57,1.88,0.9,3.82,0.94,5.79c4.49,1.2,9.76,4.44,13.68,8.98c3.5,4.06,5.98,9.19,6.02,14.92 c0.03,4.5-1.56,9.23-4.23,13.26c-1.98,2.99-4.57,5.61-7.55,7.5c-3.06,1.94-6.54,3.11-10.25,3.14c-3.49,0.02-7.11-0.98-10.67-3.35 c-1.24-0.82-1.57-2.48-0.76-3.72c0.82-1.24,2.48-1.57,3.72-0.76c2.62,1.74,5.23,2.48,7.69,2.46c2.61-0.02,5.13-0.88,7.39-2.32 c2.34-1.48,4.38-3.56,5.95-5.93c2.12-3.19,3.37-6.86,3.35-10.28c-0.03-4.3-1.98-8.25-4.72-11.43c-2.99-3.47-6.86-5.99-10.22-7.08 c-1.25,5.07-4.5,10.2-10.34,15.01c-1.14,0.94-2.83,0.77-3.77-0.37c-0.94-1.14-0.77-2.83,0.37-3.77c8.28-6.83,10.2-14.17,8.27-20.52 c-1.55-5.1-5.51-9.68-10.66-12.96c-5.23-3.33-11.63-5.28-17.96-5.06C50,5.71,40.5,11.21,35.7,24.8L35.7,24.8z"/></g></svg>