<svg data-v-423bf9ae="" xmlns="http://www.w3.org/2000/svg" viewBox="0 0 459 91" class="iconLeft"><!----><!----><!----><g data-v-423bf9ae="" id="e71ca6d8-7609-47ce-8003-bb7021cd8ef6" fill="#041F57" transform="matrix(5.366246427879327,0,0,5.366246427879327,112.26757697360213,13.019855509877782)"><path d="M0.50 5.24L1.41 4.54L1.41 4.54Q1.40 4.56 1.40 4.61L1.40 4.61L1.40 4.61Q1.40 4.63 1.39 4.66L1.39 4.66L1.39 4.66Q1.51 4.52 1.67 4.43L1.67 4.43L1.67 4.43Q1.82 4.34 1.97 4.37L1.97 4.37L1.97 4.37Q2.06 4.45 2.05 4.62L2.05 4.62L2.05 4.62Q2.04 4.79 2.00 4.99L2.00 4.99L2.00 4.99Q1.96 5.19 1.90 5.39L1.90 5.39L1.90 5.39Q1.85 5.59 1.82 5.73L1.82 5.73L1.82 5.73Q1.83 5.70 1.89 5.64L1.89 5.64L1.89 5.64Q2.06 5.45 2.22 5.28L2.22 5.28L2.22 5.28Q2.38 5.11 2.58 4.96L2.58 4.96L2.58 4.96Q3.19 4.51 3.55 4.47L3.55 4.47L3.55 4.47Q3.91 4.42 4.10 4.75L4.10 4.75L4.10 4.75Q4.34 4.69 4.51 4.68L4.51 4.68L4.51 4.68Q4.69 4.66 4.75 4.73L4.75 4.73L4.75 4.73Q5.00 5.05 5.11 5.49L5.11 5.49L5.11 5.49Q5.43 5.32 5.82 5.14L5.82 5.14L5.82 5.14Q6.22 4.96 6.64 4.83L6.64 4.83L6.64 4.83Q7.06 4.70 7.47 4.68L7.47 4.68L7.47 4.68Q7.88 4.66 8.25 4.83L8.25 4.83L8.25 4.86L8.25 4.86Q8.32 4.89 8.27 5.07L8.27 5.07L8.27 5.07Q8.13 5.50 8.11 5.96L8.11 5.96L8.11 5.96Q8.09 6.41 8.11 6.87L8.11 6.87L8.11 6.87Q8.13 7.32 8.15 7.78L8.15 7.78L8.15 7.78Q8.16 8.25 8.09 8.69L8.09 8.69L8.09 8.69Q8.06 8.86 8.06 8.97L8.06 8.97L8.06 8.97Q8.05 9.07 8.03 9.15L8.03 9.15L8.03 9.15Q8.01 9.23 7.97 9.30L7.97 9.30L7.97 9.30Q7.94 9.38 7.85 9.49L7.85 9.49L7.85 9.49Q7.81 9.56 7.68 9.68L7.68 9.68L7.68 9.68Q7.55 9.80 7.43 9.90L7.43 9.90L7.43 9.88L7.43 9.90L7.43 9.90Q7.43 9.91 7.43 9.92L7.43 9.92L7.43 9.92Q7.42 9.93 7.42 9.94L7.42 9.94L7.42 9.94Q7.35 10.00 7.32 10.00L7.32 10.00L7.32 10.00Q7.39 9.94 7.42 9.90L7.42 9.90L7.32 10.00L7.32 10.00Q7.25 10.07 7.16 10.15L7.16 10.15L7.16 10.15Q7.07 10.23 7 10.29L7 10.29L7 10.29Q6.93 10.35 6.91 10.37L6.91 10.37L6.91 10.37Q6.89 10.39 6.96 10.35L6.96 10.35L6.96 10.35Q6.89 10.42 6.77 10.47L6.77 10.47L6.77 10.47Q6.65 10.53 6.58 10.46L6.58 10.46L6.58 10.46Q6.58 10.32 6.59 9.95L6.59 9.95L6.59 9.95Q6.59 9.59 6.63 9.12L6.63 9.12L6.63 9.12Q6.66 8.65 6.71 8.13L6.71 8.13L6.71 8.13Q6.75 7.60 6.81 7.13L6.81 7.13L6.81 7.13Q6.87 6.65 6.96 6.28L6.96 6.28L6.96 6.28Q7.04 5.91 7.13 5.74L7.13 5.74L7.07 5.74L7.07 5.74Q6.76 5.77 6.47 5.85L6.47 5.85L6.47 5.85Q6.17 5.94 5.89 6.01L5.89 6.01L5.89 6.01Q5.80 6.03 5.60 6.10L5.60 6.10L5.60 6.10Q5.40 6.16 5.22 6.23L5.22 6.23L5.22 6.23Q5.25 6.62 5.24 7.04L5.24 7.04L5.24 7.04Q5.22 7.45 5.18 7.86L5.18 7.86L5.18 7.86Q5.14 8.27 5.10 8.65L5.10 8.65L5.10 8.65Q5.07 9.03 5.05 9.35L5.05 9.35L5.12 9.30L5.12 9.30Q5.12 9.66 4.85 9.95L4.85 9.95L4.85 9.95Q4.58 10.23 4.27 10.36L4.27 10.36L4.27 10.36Q4.16 10.36 4.13 10.33L4.13 10.33L4.13 10.33Q3.98 10.53 3.78 10.68L3.78 10.68L3.78 10.68Q3.58 10.82 3.47 10.72L3.47 10.72L3.47 10.72Q3.40 10.16 3.41 9.60L3.41 9.60L3.41 9.60Q3.42 9.04 3.44 8.48L3.44 8.48L3.44 8.48Q3.46 7.92 3.46 7.36L3.46 7.36L3.46 7.36Q3.47 6.79 3.40 6.23L3.40 6.23L3.40 6.23Q3.35 5.87 3.25 5.66L3.25 5.66L3.25 5.66Q2.94 5.73 2.65 5.84L2.65 5.84L2.65 5.84Q2.35 5.95 2.16 6.05L2.16 6.05L2.16 6.05Q2.04 6.20 1.93 6.35L1.93 6.35L1.93 6.35Q1.82 6.50 1.71 6.64L1.71 6.64L1.71 6.64Q1.64 7.48 1.65 8.37L1.65 8.37L1.65 8.37Q1.67 9.27 1.82 10.04L1.82 10.04L1.82 10.04Q1.83 10.02 1.85 10.02L1.85 10.02L1.85 10.02Q1.86 10.01 1.88 10.00L1.88 10.00L1.88 10.00Q1.88 10.05 1.87 10.10L1.87 10.10L1.87 10.10Q1.86 10.15 1.86 10.19L1.86 10.19L1.86 10.19Q1.83 10.28 1.72 10.45L1.72 10.45L1.72 10.45Q1.61 10.63 1.46 10.77L1.46 10.77L1.46 10.77Q1.32 10.92 1.17 11.00L1.17 11.00L1.17 11.00Q1.02 11.09 0.94 11.00L0.94 11.00L0.94 11.00Q0.90 10.86 0.88 10.71L0.88 10.71L0.88 10.71Q0.85 10.56 0.83 10.40L0.83 10.40L0.83 10.40Q0.69 10.46 0.60 10.39L0.60 10.39L0.60 10.39Q0.57 10.02 0.57 9.65L0.57 9.65L0.57 9.65Q0.57 9.27 0.55 8.89L0.55 8.89L0.55 8.89Q0.49 7.97 0.41 7.07L0.41 7.07L0.41 7.07Q0.34 6.17 0.50 5.24L0.50 5.24ZM5.11 5.50L5.11 5.50L5.11 5.50Q5.10 5.60 5.12 5.61L5.12 5.61L5.12 5.61Q5.14 5.61 5.16 5.59L5.16 5.59L5.16 5.59Q5.18 5.56 5.18 5.53L5.18 5.53L5.18 5.53Q5.18 5.49 5.11 5.50ZM5.29 5.43L5.28 5.45L5.28 5.45Q5.29 5.45 5.30 5.44L5.30 5.44L5.30 5.44Q5.31 5.43 5.29 5.43L5.29 5.43ZM12.95 4.09L12.95 4.09L12.95 4.09Q13.03 4.09 13.27 4.12L13.27 4.12L13.27 4.12Q13.51 4.14 13.78 4.21L13.78 4.21L13.78 4.21Q14.06 4.28 14.29 4.41L14.29 4.41L14.29 4.41Q14.52 4.54 14.56 4.72L14.56 4.72L14.56 4.72Q14.70 4.87 14.80 5.08L14.80 5.08L14.80 5.08Q15.09 5.70 14.92 6.17L14.92 6.17L14.92 6.17Q14.99 6.19 15.06 6.20L15.06 6.20L15.06 6.20Q15.12 6.22 15.18 6.24L15.18 6.24L15.18 6.24Q15.20 6.37 15.14 6.50L15.14 6.50L15.14 6.50Q15.08 6.62 14.97 6.73L14.97 6.73L14.97 6.73Q14.87 6.85 14.74 6.94L14.74 6.94L14.74 6.94Q14.62 7.03 14.53 7.08L14.53 7.08L14.53 7.08Q14.29 7.22 13.96 7.25L13.96 7.25L13.96 7.25Q13.62 7.27 13.30 7.27L13.30 7.27L13.30 7.27Q12.71 7.34 12.16 7.46L12.16 7.46L12.16 7.46Q11.61 7.59 11.05 7.73L11.05 7.73L11.05 7.73Q10.78 7.80 10.52 7.88L10.52 7.88L10.52 7.88Q10.26 7.97 10.00 8.04L10.00 8.04L10.00 8.04Q10.25 8.69 10.79 9.13L10.79 9.13L10.79 9.13Q11.28 9.41 11.90 9.48L11.90 9.48L11.90 9.48Q12.52 9.55 13.09 9.51L13.09 9.51L13.55 9.38L13.55 9.38Q13.58 9.37 13.53 9.38L13.53 9.38L13.53 9.38Q13.48 9.39 13.41 9.41L13.41 9.41L13.41 9.41Q13.34 9.42 13.29 9.44L13.29 9.44L13.29 9.44Q13.24 9.45 13.29 9.44L13.29 9.44L13.29 9.44Q13.66 9.34 14.06 9.25L14.06 9.25L14.06 9.25Q14.46 9.17 14.84 9.03L14.84 9.03L14.84 9.03Q14.95 8.95 15.07 8.86L15.07 8.86L15.07 8.86Q15.19 8.76 15.34 8.71L15.34 8.71L15.34 8.71Q15.39 8.69 15.44 8.69L15.44 8.69L15.44 8.69Q15.48 8.68 15.53 8.69L15.53 8.69L15.53 8.69Q15.55 8.81 15.55 8.86L15.55 8.86L15.55 8.86Q15.48 9.11 15.29 9.30L15.29 9.30L15.29 9.30Q15.09 9.49 14.90 9.63L14.90 9.63L14.90 9.63Q14.63 9.77 14.35 9.88L14.35 9.88L14.35 9.88Q14.34 9.90 14.32 9.90L14.32 9.90L14.32 9.90Q14 10.09 13.62 10.20L13.62 10.20L13.62 10.20Q13.24 10.30 12.88 10.36L12.88 10.36L12.88 10.36Q12.54 10.42 12.15 10.44L12.15 10.44L12.15 10.44Q11.41 10.57 10.84 10.48L10.84 10.48L10.84 10.48Q10.28 10.39 9.86 10.01L9.86 10.01L9.86 10.01Q9.58 9.84 9.37 9.60L9.37 9.60L9.37 9.60Q9.17 9.35 9.07 9.02L9.07 9.02L9.07 9.02Q9.03 8.92 9.03 8.83L9.03 8.83L9.03 8.83Q9.03 8.74 9.04 8.64L9.04 8.64L9.04 8.64Q8.95 8.37 8.86 8.02L8.86 8.02L8.86 8.02Q8.79 7.77 8.87 7.50L8.87 7.50L8.87 7.50Q8.95 7.24 8.99 6.96L8.99 6.96L8.99 6.96Q9.03 6.66 9.21 6.37L9.21 6.37L9.21 6.37Q9.38 6.08 9.58 5.82L9.58 5.82L9.58 5.82Q9.93 5.36 10.29 5.05L10.29 5.05L10.29 5.05Q10.65 4.75 11.05 4.55L11.05 4.55L11.05 4.55Q11.45 4.35 11.92 4.25L11.92 4.25L11.92 4.25Q12.39 4.14 12.95 4.09ZM9.95 6.82L9.95 6.82L9.95 6.82Q9.95 6.92 9.97 7L9.97 7L9.97 7Q9.98 7.08 10.01 7.18L10.01 7.18L10.01 7.18Q10.25 7.07 10.50 6.99L10.50 6.99L10.50 6.99Q10.75 6.90 11.02 6.83L11.02 6.83L11.02 6.83Q11.55 6.66 12.09 6.54L12.09 6.54L12.09 6.54Q12.63 6.43 12.99 6.33L12.99 6.33L12.99 6.33Q13.23 6.26 13.47 6.20L13.47 6.20L13.47 6.20Q13.71 6.15 13.94 6.10L13.94 6.10L13.94 6.10Q13.93 6.06 13.92 6.03L13.92 6.03L13.92 6.03Q13.90 5.99 13.89 5.95L13.89 5.95L13.89 5.95Q13.72 5.59 13.41 5.40L13.41 5.40L13.41 5.40Q13.10 5.21 12.70 5.18L12.70 5.18L12.70 5.18Q12.28 5.14 11.87 5.26L11.87 5.26L11.87 5.26Q11.45 5.38 11.09 5.61L11.09 5.61L11.09 5.61Q10.72 5.84 10.43 6.15L10.43 6.15L10.43 6.15Q10.14 6.45 9.95 6.82ZM10.14 5.82L10.14 5.82L10.14 5.82Q10.32 5.66 10.50 5.51L10.50 5.51L10.50 5.51Q10.68 5.36 10.88 5.22L10.88 5.22L10.88 5.22Q10.43 5.40 10.21 5.73L10.21 5.73L10.21 5.73Q10.18 5.75 10.17 5.77L10.17 5.77L10.17 5.77Q10.16 5.80 10.14 5.82ZM16.23 5.24L17.14 4.54L17.14 4.54Q17.12 4.56 17.12 4.61L17.12 4.61L17.12 4.61Q17.12 4.63 17.11 4.66L17.11 4.66L17.11 4.66Q17.23 4.52 17.39 4.43L17.39 4.43L17.39 4.43Q17.54 4.34 17.70 4.37L17.70 4.37L17.70 4.37Q17.78 4.45 17.77 4.62L17.77 4.62L17.77 4.62Q17.77 4.79 17.72 4.99L17.72 4.99L17.72 4.99Q17.68 5.19 17.63 5.39L17.63 5.39L17.63 5.39Q17.57 5.59 17.54 5.73L17.54 5.73L17.54 5.73Q17.56 5.70 17.61 5.64L17.61 5.64L17.61 5.64Q17.78 5.45 17.94 5.28L17.94 5.28L17.94 5.28Q18.10 5.11 18.30 4.96L18.30 4.96L18.30 4.96Q18.91 4.51 19.27 4.47L19.27 4.47L19.27 4.47Q19.63 4.42 19.82 4.75L19.82 4.75L19.82 4.75Q20.06 4.69 20.24 4.68L20.24 4.68L20.24 4.68Q20.41 4.66 20.47 4.73L20.47 4.73L20.47 4.73Q20.72 5.05 20.83 5.49L20.83 5.49L20.83 5.49Q21.15 5.32 21.55 5.14L21.55 5.14L21.55 5.14Q21.94 4.96 22.36 4.83L22.36 4.83L22.36 4.83Q22.78 4.70 23.19 4.68L23.19 4.68L23.19 4.68Q23.60 4.66 23.97 4.83L23.97 4.83L23.97 4.86L23.97 4.86Q24.04 4.89 24.00 5.07L24.00 5.07L24.00 5.07Q23.86 5.50 23.84 5.96L23.84 5.96L23.84 5.96Q23.81 6.41 23.84 6.87L23.84 6.87L23.84 6.87Q23.86 7.32 23.87 7.78L23.87 7.78L23.87 7.78Q23.88 8.25 23.81 8.69L23.81 8.69L23.81 8.69Q23.79 8.86 23.78 8.97L23.78 8.97L23.78 8.97Q23.77 9.07 23.75 9.15L23.75 9.15L23.75 9.15Q23.73 9.23 23.70 9.30L23.70 9.30L23.70 9.30Q23.66 9.38 23.58 9.49L23.58 9.49L23.58 9.49Q23.53 9.56 23.40 9.68L23.40 9.68L23.40 9.68Q23.27 9.80 23.16 9.90L23.16 9.90L23.16 9.88L23.16 9.90L23.16 9.90Q23.16 9.91 23.15 9.92L23.15 9.92L23.15 9.92Q23.14 9.93 23.14 9.94L23.14 9.94L23.14 9.94Q23.07 10.00 23.04 10.00L23.04 10.00L23.04 10.00Q23.11 9.94 23.14 9.90L23.14 9.90L23.04 10.00L23.04 10.00Q22.97 10.07 22.88 10.15L22.88 10.15L22.88 10.15Q22.79 10.23 22.72 10.29L22.72 10.29L22.72 10.29Q22.65 10.35 22.63 10.37L22.63 10.37L22.63 10.37Q22.61 10.39 22.68 10.35L22.68 10.35L22.68 10.35Q22.61 10.42 22.49 10.47L22.49 10.47L22.49 10.47Q22.37 10.53 22.30 10.46L22.30 10.46L22.30 10.46Q22.30 10.32 22.31 9.95L22.31 9.95L22.31 9.95Q22.32 9.59 22.35 9.12L22.35 9.12L22.35 9.12Q22.39 8.65 22.43 8.13L22.43 8.13L22.43 8.13Q22.47 7.60 22.53 7.13L22.53 7.13L22.53 7.13Q22.60 6.65 22.68 6.28L22.68 6.28L22.68 6.28Q22.76 5.91 22.85 5.74L22.85 5.74L22.79 5.74L22.79 5.74Q22.48 5.77 22.19 5.85L22.19 5.85L22.19 5.85Q21.90 5.94 21.62 6.01L21.62 6.01L21.62 6.01Q21.52 6.03 21.32 6.10L21.32 6.10L21.32 6.10Q21.13 6.16 20.94 6.23L20.94 6.23L20.94 6.23Q20.97 6.62 20.96 7.04L20.96 7.04L20.96 7.04Q20.94 7.45 20.90 7.86L20.90 7.86L20.90 7.86Q20.86 8.27 20.83 8.65L20.83 8.65L20.83 8.65Q20.79 9.03 20.78 9.35L20.78 9.35L20.85 9.30L20.85 9.30Q20.85 9.66 20.57 9.95L20.57 9.95L20.57 9.95Q20.30 10.23 19.99 10.36L19.99 10.36L19.99 10.36Q19.88 10.36 19.85 10.33L19.85 10.33L19.85 10.33Q19.70 10.53 19.50 10.68L19.50 10.68L19.50 10.68Q19.31 10.82 19.19 10.72L19.19 10.72L19.19 10.72Q19.12 10.16 19.13 9.60L19.13 9.60L19.13 9.60Q19.14 9.04 19.16 8.48L19.16 8.48L19.16 8.48Q19.18 7.92 19.19 7.36L19.19 7.36L19.19 7.36Q19.19 6.79 19.12 6.23L19.12 6.23L19.12 6.23Q19.07 5.87 18.97 5.66L18.97 5.66L18.97 5.66Q18.66 5.73 18.37 5.84L18.37 5.84L18.37 5.84Q18.07 5.95 17.88 6.05L17.88 6.05L17.88 6.05Q17.77 6.20 17.65 6.35L17.65 6.35L17.65 6.35Q17.54 6.50 17.43 6.64L17.43 6.64L17.43 6.64Q17.36 7.48 17.37 8.37L17.37 8.37L17.37 8.37Q17.39 9.27 17.54 10.04L17.54 10.04L17.54 10.04Q17.56 10.02 17.57 10.02L17.57 10.02L17.57 10.02Q17.58 10.01 17.60 10.00L17.60 10.00L17.60 10.00Q17.60 10.05 17.59 10.10L17.59 10.10L17.59 10.10Q17.58 10.15 17.58 10.19L17.58 10.19L17.58 10.19Q17.56 10.28 17.44 10.45L17.44 10.45L17.44 10.45Q17.33 10.63 17.19 10.77L17.19 10.77L17.19 10.77Q17.04 10.92 16.89 11.00L16.89 11.00L16.89 11.00Q16.74 11.09 16.66 11.00L16.66 11.00L16.66 11.00Q16.62 10.86 16.60 10.71L16.60 10.71L16.60 10.71Q16.58 10.56 16.55 10.40L16.55 10.40L16.55 10.40Q16.41 10.46 16.32 10.39L16.32 10.39L16.32 10.39Q16.30 10.02 16.30 9.65L16.30 9.65L16.30 9.65Q16.30 9.27 16.27 8.89L16.27 8.89L16.27 8.89Q16.21 7.97 16.14 7.07L16.14 7.07L16.14 7.07Q16.06 6.17 16.23 5.24L16.23 5.24ZM20.83 5.50L20.83 5.50L20.83 5.50Q20.82 5.60 20.84 5.61L20.84 5.61L20.84 5.61Q20.86 5.61 20.88 5.59L20.88 5.59L20.88 5.59Q20.90 5.56 20.90 5.53L20.90 5.53L20.90 5.53Q20.90 5.49 20.83 5.50ZM21.01 5.43L21 5.45L21 5.45Q21.01 5.45 21.02 5.44L21.02 5.44L21.02 5.44Q21.03 5.43 21.01 5.43L21.01 5.43ZM28.67 4.09L28.67 4.09L28.67 4.09Q28.76 4.09 28.99 4.12L28.99 4.12L28.99 4.12Q29.23 4.14 29.51 4.21L29.51 4.21L29.51 4.21Q29.78 4.28 30.01 4.41L30.01 4.41L30.01 4.41Q30.24 4.54 30.28 4.72L30.28 4.72L30.28 4.72Q30.42 4.87 30.52 5.08L30.52 5.08L30.52 5.08Q30.81 5.70 30.65 6.17L30.65 6.17L30.65 6.17Q30.72 6.19 30.78 6.20L30.78 6.20L30.78 6.20Q30.84 6.22 30.90 6.24L30.90 6.24L30.90 6.24Q30.93 6.37 30.86 6.50L30.86 6.50L30.86 6.50Q30.80 6.62 30.70 6.73L30.70 6.73L30.70 6.73Q30.59 6.85 30.46 6.94L30.46 6.94L30.46 6.94Q30.34 7.03 30.25 7.08L30.25 7.08L30.25 7.08Q30.02 7.22 29.68 7.25L29.68 7.25L29.68 7.25Q29.34 7.27 29.02 7.27L29.02 7.27L29.02 7.27Q28.43 7.34 27.88 7.46L27.88 7.46L27.88 7.46Q27.33 7.59 26.77 7.73L26.77 7.73L26.77 7.73Q26.50 7.80 26.24 7.88L26.24 7.88L26.24 7.88Q25.98 7.97 25.72 8.04L25.72 8.04L25.72 8.04Q25.97 8.69 26.52 9.13L26.52 9.13L26.52 9.13Q27.01 9.41 27.62 9.48L27.62 9.48L27.62 9.48Q28.24 9.55 28.81 9.51L28.81 9.51L29.27 9.38L29.27 9.38Q29.30 9.37 29.25 9.38L29.25 9.38L29.25 9.38Q29.20 9.39 29.13 9.41L29.13 9.41L29.13 9.41Q29.06 9.42 29.02 9.44L29.02 9.44L29.02 9.44Q28.97 9.45 29.01 9.44L29.01 9.44L29.01 9.44Q29.39 9.34 29.79 9.25L29.79 9.25L29.79 9.25Q30.18 9.17 30.56 9.03L30.56 9.03L30.56 9.03Q30.67 8.95 30.79 8.86L30.79 8.86L30.79 8.86Q30.91 8.76 31.07 8.71L31.07 8.71L31.07 8.71Q31.11 8.69 31.16 8.69L31.16 8.69L31.16 8.69Q31.21 8.68 31.25 8.69L31.25 8.69L31.25 8.69Q31.28 8.81 31.28 8.86L31.28 8.86L31.28 8.86Q31.21 9.11 31.01 9.30L31.01 9.30L31.01 9.30Q30.81 9.49 30.62 9.63L30.62 9.63L30.62 9.63Q30.35 9.77 30.07 9.88L30.07 9.88L30.07 9.88Q30.06 9.90 30.04 9.90L30.04 9.90L30.04 9.90Q29.72 10.09 29.34 10.20L29.34 10.20L29.34 10.20Q28.97 10.30 28.60 10.36L28.60 10.36L28.60 10.36Q28.27 10.42 27.87 10.44L27.87 10.44L27.87 10.44Q27.13 10.57 26.57 10.48L26.57 10.48L26.57 10.48Q26.00 10.39 25.58 10.01L25.58 10.01L25.58 10.01Q25.30 9.84 25.10 9.60L25.10 9.60L25.10 9.60Q24.89 9.35 24.79 9.02L24.79 9.02L24.79 9.02Q24.75 8.92 24.75 8.83L24.75 8.83L24.75 8.83Q24.75 8.74 24.77 8.64L24.77 8.64L24.77 8.64Q24.67 8.37 24.58 8.02L24.58 8.02L24.58 8.02Q24.51 7.77 24.59 7.50L24.59 7.50L24.59 7.50Q24.67 7.24 24.71 6.96L24.71 6.96L24.71 6.96Q24.75 6.66 24.93 6.37L24.93 6.37L24.93 6.37Q25.10 6.08 25.30 5.82L25.30 5.82L25.30 5.82Q25.65 5.36 26.01 5.05L26.01 5.05L26.01 5.05Q26.38 4.75 26.78 4.55L26.78 4.55L26.78 4.55Q27.17 4.35 27.64 4.25L27.64 4.25L27.64 4.25Q28.11 4.14 28.67 4.09ZM25.68 6.82L25.68 6.82L25.68 6.82Q25.68 6.92 25.69 7L25.69 7L25.69 7Q25.70 7.08 25.73 7.18L25.73 7.18L25.73 7.18Q25.97 7.07 26.22 6.99L26.22 6.99L26.22 6.99Q26.47 6.90 26.74 6.83L26.74 6.83L26.74 6.83Q27.27 6.66 27.81 6.54L27.81 6.54L27.81 6.54Q28.35 6.43 28.71 6.33L28.71 6.33L28.71 6.33Q28.95 6.26 29.19 6.20L29.19 6.20L29.19 6.20Q29.43 6.15 29.67 6.10L29.67 6.10L29.67 6.10Q29.65 6.06 29.64 6.03L29.64 6.03L29.64 6.03Q29.62 5.99 29.61 5.95L29.61 5.95L29.61 5.95Q29.44 5.59 29.13 5.40L29.13 5.40L29.13 5.40Q28.83 5.21 28.42 5.18L28.42 5.18L28.42 5.18Q28 5.14 27.59 5.26L27.59 5.26L27.59 5.26Q27.17 5.38 26.81 5.61L26.81 5.61L26.81 5.61Q26.45 5.84 26.15 6.15L26.15 6.15L26.15 6.15Q25.86 6.45 25.68 6.82ZM25.86 5.82L25.86 5.82L25.86 5.82Q26.04 5.66 26.22 5.51L26.22 5.51L26.22 5.51Q26.40 5.36 26.60 5.22L26.60 5.22L26.60 5.22Q26.15 5.40 25.93 5.73L25.93 5.73L25.93 5.73Q25.90 5.75 25.89 5.77L25.89 5.77L25.89 5.77Q25.89 5.80 25.86 5.82ZM33.50 4.77L33.46 5.25L33.46 5.25Q33.56 5.12 33.65 5.01L33.65 5.01L33.65 5.01Q33.74 4.90 33.85 4.80L33.85 4.80L33.85 4.80Q33.89 4.77 33.85 4.87L33.85 4.87L33.85 4.87Q33.81 4.96 33.81 5.01L33.81 5.01L33.81 5.01Q33.77 5.22 33.77 5.42L33.77 5.42L33.77 5.42Q33.75 5.54 33.75 5.66L33.75 5.66L33.75 5.66Q33.74 5.78 33.74 5.89L33.74 5.89L33.74 5.89Q34.02 5.59 34.36 5.33L34.36 5.33L34.36 5.33Q34.69 5.07 35.06 4.91L35.06 4.91L35.06 4.91Q35.42 4.76 35.80 4.74L35.80 4.74L35.80 4.74Q36.19 4.72 36.55 4.90L36.55 4.90L36.55 4.90Q36.64 4.96 36.69 5.01L36.69 5.01L36.69 5.01Q36.88 5.05 37.04 5.14L37.04 5.14L37.04 5.14Q37.20 5.24 37.31 5.40L37.31 5.40L37.31 5.40Q37.46 5.64 37.51 5.92L37.51 5.92L37.51 5.92Q37.56 6.19 37.60 6.47L37.60 6.47L37.60 6.47Q37.52 6.47 37.44 6.47L37.44 6.47L37.44 6.47Q37.37 6.48 37.28 6.47L37.28 6.47L36.96 7.20L37.04 7.14L37.04 7.14Q36.96 7.21 36.86 7.26L36.86 7.26L36.86 7.26Q36.75 7.31 36.68 7.24L36.68 7.24L36.68 7.24Q36.65 7.17 36.65 7.08L36.65 7.08L36.65 7.08Q36.64 7 36.62 6.93L36.62 6.93L36.62 6.93Q36.58 6.94 36.50 6.94L36.50 6.94L36.50 6.94Q36.41 6.92 36.33 6.85L36.33 6.85L36.33 6.85Q36.29 6.85 36.26 6.80L36.26 6.80L36.26 6.80Q36.26 6.80 36.23 6.75L36.23 6.75L36.23 6.75Q36.16 6.68 36.09 6.62L36.09 6.62L36.09 6.62Q36.02 6.55 35.91 6.50L35.91 6.50L35.91 6.50Q35.69 6.41 35.39 6.40L35.39 6.40L35.39 6.40Q35.10 6.38 34.80 6.45L34.80 6.45L34.80 6.45Q34.50 6.51 34.22 6.64L34.22 6.64L34.22 6.64Q33.95 6.76 33.75 6.94L33.75 6.94L33.75 6.94Q33.75 7.35 33.84 7.88L33.84 7.88L33.84 7.88Q33.94 8.23 34.05 8.57L34.05 8.57L34.05 8.57Q34.16 8.90 34.27 9.23L34.27 9.23L34.13 9.37L34.13 9.37Q34.20 9.67 34.28 9.93L34.28 9.93L34.28 9.93Q34.36 10.19 34.43 10.39L34.43 10.39L34.43 10.39Q34.40 10.42 34.39 10.43L34.39 10.43L34.39 10.43Q34.38 10.44 34.36 10.46L34.36 10.46L34.36 10.46Q34.38 10.51 34.41 10.53L34.41 10.53L34.41 10.54L34.50 10.63L34.50 10.63Q34.52 10.60 34.55 10.58L34.55 10.58L34.55 10.58Q34.54 10.61 34.54 10.64L34.54 10.64L34.54 10.64Q34.54 10.68 34.52 10.71L34.52 10.71L34.52 10.71Q34.51 10.79 34.39 10.96L34.39 10.96L34.39 10.96Q34.27 11.13 34.13 11.28L34.13 11.28L34.13 11.28Q33.98 11.42 33.83 11.51L33.83 11.51L33.83 11.51Q33.68 11.59 33.60 11.51L33.60 11.51L33.60 11.51Q33.46 11.37 33.36 11.17L33.36 11.17L33.36 11.17Q33.26 10.98 33.18 10.74L33.18 10.74L33.18 10.74Q33.03 10.93 32.84 11.10L32.84 11.10L32.84 11.10Q32.66 11.26 32.52 11.21L32.52 11.21L32.52 11.21Q32.51 11.24 32.49 11.25L32.49 11.25L32.49 11.25Q32.48 11.26 32.47 11.28L32.47 11.28L32.47 11.28Q32.47 11.26 32.46 11.23L32.46 11.23L32.46 11.23Q32.45 11.20 32.45 11.17L32.45 11.17L32.45 11.17Q32.31 10.93 32.28 10.63L32.28 10.63L32.28 10.63Q32.26 10.32 32.23 10.05L32.23 10.05L32.23 10.05Q32.19 9.73 32.16 9.41L32.16 9.41L32.16 9.41Q32.13 9.10 32.12 8.78L32.12 8.78L32.12 8.78Q31.99 8.15 31.89 7.52L31.89 7.52L31.89 7.52Q31.79 6.89 31.77 6.23L31.77 6.23L32.13 5.92L32.13 5.71L32.13 5.71Q32.13 5.71 32.16 5.70L32.16 5.70L32.16 5.70Q32.21 5.57 32.34 5.41L32.34 5.41L32.34 5.41Q32.47 5.25 32.61 5.12L32.61 5.12L32.61 5.12Q32.75 5.00 32.87 4.94L32.87 4.94L32.87 4.94Q33.00 4.89 33.04 4.96L33.04 4.96L33.05 4.94L33.05 5.21L33.05 5.21Q33.14 5.08 33.26 4.98L33.26 4.98L33.26 4.98Q33.38 4.87 33.50 4.77L33.50 4.77ZM44.59 0.74L44.55 0.77L44.55 0.77Q44.55 0.78 44.53 0.78L44.53 0.78L44.55 0.77L44.55 0.77Q44.51 0.83 44.51 0.83L44.51 0.83L44.51 0.83Q44.51 0.83 44.52 0.80L44.52 0.80L44.52 0.80Q44.41 1.04 44.35 1.39L44.35 1.39L44.35 1.39Q44.28 1.74 44.24 2.10L44.24 2.10L44.24 2.10Q44.20 2.46 44.18 2.81L44.18 2.81L44.18 2.81Q44.17 3.15 44.14 3.39L44.14 3.39L44.14 3.39Q44.04 4.40 43.97 5.40L43.97 5.40L43.97 5.40Q43.97 5.40 44.00 5.38L44.00 5.38L44.00 5.38Q44.07 5.33 44.14 5.29L44.14 5.29L44.14 5.29Q44.20 5.24 44.27 5.18L44.27 5.18L44.27 5.19L44.27 5.19Q44.84 4.77 45.47 4.35L45.47 4.35L45.47 4.35Q46.10 3.93 46.73 3.61L46.73 3.61L46.73 3.61Q46.96 3.47 47.17 3.34L47.17 3.34L47.17 3.34Q47.39 3.21 47.63 3.09L47.63 3.09L47.63 3.09Q47.71 3.07 47.75 3.06L47.75 3.06L47.75 3.06Q47.80 3.05 47.82 3.15L47.82 3.15L47.82 3.15Q47.75 3.47 47.50 3.72L47.50 3.72L47.50 3.72Q47.25 3.96 46.97 4.10L46.97 4.10L46.97 4.10Q46.66 4.48 46.33 4.77L46.33 4.77L46.33 4.77Q46.00 5.05 45.60 5.31L45.60 5.31L45.49 5.47L45.49 5.47Q45.60 5.36 45.73 5.28L45.73 5.28L45.73 5.28Q45.86 5.19 46.02 5.22L46.02 5.22L46.02 5.22Q46.12 5.42 46.18 5.69L46.18 5.69L46.18 5.69Q46.24 5.96 46.30 6.26L46.30 6.26L46.30 6.26Q46.35 6.57 46.41 6.86L46.41 6.86L46.41 6.86Q46.47 7.15 46.55 7.39L46.55 7.39L46.55 7.39Q46.62 7.55 46.67 7.69L46.67 7.69L46.67 7.69Q46.72 7.83 46.77 7.98L46.77 7.98L46.77 7.98Q47.05 8.61 47.34 9.22L47.34 9.22L47.34 9.22Q47.63 9.83 47.70 10.51L47.70 10.51L47.70 10.56L47.70 10.56Q47.68 10.64 47.57 10.79L47.57 10.79L47.57 10.79Q47.46 10.95 47.33 11.10L47.33 11.10L47.33 11.10Q47.19 11.24 47.05 11.33L47.05 11.33L47.05 11.33Q46.90 11.42 46.80 11.37L46.80 11.37L46.77 11.41L46.77 11.41Q46.77 11.38 46.77 11.37L46.77 11.37L46.77 11.37Q46.76 11.35 46.76 11.34L46.76 11.34L46.76 11.34Q46.47 10.75 46.28 10.13L46.28 10.13L46.28 10.13Q46.10 9.51 45.88 8.88L45.88 8.88L45.88 8.88Q45.81 8.72 45.75 8.57L45.75 8.57L45.75 8.57Q45.70 8.43 45.64 8.27L45.64 8.27L45.64 8.27Q45.63 8.26 45.63 8.25L45.63 8.25L45.63 8.25Q45.60 8.19 45.60 8.18L45.60 8.18L45.60 8.18Q45.47 7.91 45.29 7.64L45.29 7.64L45.29 7.64Q45.11 7.36 44.94 7.09L44.94 7.09L44.94 7.09Q44.77 6.82 44.63 6.53L44.63 6.53L44.63 6.53Q44.49 6.24 44.45 5.94L44.45 5.94L44.45 5.92L44.45 5.92Q44.16 6.10 43.93 6.29L43.93 6.29L43.93 6.29Q43.90 7.15 43.97 8.00L43.97 8.00L43.97 8.00Q44.03 8.85 44.23 9.69L44.23 9.69L44.25 9.66L44.25 9.66Q44.25 9.69 44.25 9.72L44.25 9.72L44.25 9.72Q44.24 9.76 44.24 9.79L44.24 9.79L44.24 9.79Q44.21 9.87 44.11 10.03L44.11 10.03L44.11 10.03Q44.00 10.19 43.86 10.35L43.86 10.35L43.85 10.36L43.85 10.36Q43.78 10.47 43.67 10.61L43.67 10.61L43.67 10.61Q43.55 10.74 43.44 10.84L43.44 10.84L43.44 10.84Q43.33 10.93 43.22 10.98L43.22 10.98L43.22 10.98Q43.11 11.02 43.04 10.95L43.04 10.95L43.04 10.96L43.04 10.96Q43.04 10.95 43.02 10.93L43.02 10.93L43.02 10.92L43.02 10.92Q43.01 10.93 43.01 10.93L43.01 10.93L43.01 10.93Q43.01 10.95 42.99 10.96L42.99 10.96L42.99 10.96Q42.98 10.91 42.95 10.82L42.95 10.82L42.95 10.82Q42.77 10.32 42.66 9.77L42.66 9.77L42.66 9.77Q42.59 9.79 42.52 9.74L42.52 9.74L42.52 9.74Q42.52 9.76 42.50 9.76L42.50 9.76L42.50 9.73L42.50 9.73Q42.46 9.11 42.45 8.51L42.45 8.51L42.45 8.51Q42.43 7.91 42.43 7.28L42.43 7.28L42.43 7.28Q42.28 7.35 42.27 7.25L42.27 7.25L42.27 7.25Q42.25 7.15 42.41 6.92L42.41 6.92L42.41 6.92Q42.42 6.90 42.42 6.90L42.42 6.90L42.42 6.90Q42.42 6.89 42.43 6.87L42.43 6.87L42.43 6.87Q42.45 5.57 42.56 4.24L42.56 4.24L42.56 4.24Q42.59 3.85 42.64 3.46L42.64 3.46L42.64 3.46Q42.69 3.08 42.76 2.69L42.76 2.69L42.76 2.69Q42.77 2.60 42.79 2.51L42.79 2.51L42.79 2.51Q42.81 2.41 42.84 2.31L42.84 2.31L42.76 2.37L42.76 2.37Q42.78 2.03 42.90 1.75L42.90 1.75L42.90 1.75Q42.90 1.75 42.95 1.64L42.95 1.64L42.95 1.64Q42.98 1.48 43.04 1.34L43.04 1.34L43.04 1.34Q43.11 1.19 43.22 1.04L43.22 1.04L43.22 1.04Q43.25 1.01 43.36 0.89L43.36 0.89L43.36 0.89Q43.47 0.77 43.60 0.66L43.60 0.66L43.60 0.66Q43.74 0.56 43.85 0.52L43.85 0.52L43.85 0.52Q43.96 0.48 43.99 0.60L43.99 0.60L43.99 0.60Q43.99 0.67 43.99 0.73L43.99 0.73L43.99 0.73Q43.99 0.78 43.97 0.85L43.97 0.85L43.97 0.85Q44.04 0.78 44.18 0.66L44.18 0.66L44.18 0.66Q44.31 0.53 44.44 0.45L44.44 0.45L44.44 0.45Q44.56 0.36 44.64 0.37L44.64 0.37L44.64 0.37Q44.72 0.38 44.67 0.57L44.67 0.57L44.59 0.74ZM48.58 7.81L48.58 7.81L48.58 7.81Q48.51 7.25 48.55 6.72L48.55 6.72L48.51 6.76L48.51 6.76Q48.51 6.52 48.52 6.32L48.52 6.32L48.52 6.32Q48.52 6.12 48.57 5.94L48.57 5.94L48.57 5.94Q48.61 5.77 48.71 5.61L48.71 5.61L48.71 5.61Q48.80 5.45 49.00 5.28L49.00 5.28L49.00 5.28Q49.07 5.22 49.16 5.15L49.16 5.15L49.16 5.15Q49.25 5.08 49.36 5.04L49.36 5.04L49.69 4.73L49.69 4.73Q49.71 4.82 49.74 4.91L49.74 4.91L49.74 4.91Q49.76 5.00 49.77 5.08L49.77 5.08L49.77 5.08Q49.91 4.97 50.02 4.93L50.02 4.93L50.02 4.93Q50.13 4.90 50.16 5.03L50.16 5.03L50.16 5.03Q50.15 5.14 50.14 5.24L50.14 5.24L50.14 5.24Q50.13 5.35 50.13 5.46L50.13 5.46L50.13 5.46Q50.12 6.02 50.11 6.58L50.11 6.58L50.11 6.58Q50.11 7.14 50.12 7.70L50.12 7.70L50.12 7.70Q50.16 8.25 50.24 8.79L50.24 8.79L50.24 8.79Q50.32 9.34 50.44 9.91L50.44 9.91L50.44 9.91Q50.46 9.91 50.48 9.88L50.48 9.88L50.48 9.88Q50.48 9.91 50.48 9.95L50.48 9.95L50.48 9.95Q50.47 9.98 50.47 10.01L50.47 10.01L50.47 10.01Q50.44 10.09 50.34 10.25L50.34 10.25L50.34 10.25Q50.23 10.40 50.09 10.55L50.09 10.55L50.09 10.55Q49.95 10.70 49.81 10.79L49.81 10.79L49.81 10.79Q49.67 10.88 49.57 10.84L49.57 10.84L49.57 10.84Q49.46 10.93 49.35 10.98L49.35 10.98L49.35 10.98Q49.24 11.02 49.17 10.95L49.17 10.95L49.17 10.95Q49.15 10.91 49.15 10.87L49.15 10.87L49.15 10.87Q49.14 10.84 49.13 10.79L49.13 10.79L49.13 10.79Q48.92 10.93 48.82 10.84L48.82 10.84L48.82 10.84Q48.80 10.77 48.80 10.68L48.80 10.68L48.80 10.68Q48.80 10.61 48.79 10.53L48.79 10.53L48.79 10.53Q48.75 10.43 48.71 10.25L48.71 10.25L48.71 10.25Q48.68 10.07 48.66 9.86L48.66 9.86L48.66 9.86Q48.65 9.66 48.64 9.48L48.64 9.48L48.64 9.48Q48.62 9.30 48.62 9.21L48.62 9.21L48.62 9.21Q48.61 9.02 48.61 8.83L48.61 8.83L48.61 8.83Q48.61 8.65 48.61 8.46L48.61 8.46L48.61 8.46Q48.59 8.30 48.59 8.13L48.59 8.13L48.59 8.13Q48.58 7.97 48.58 7.81ZM48.89 2.88L48.96 2.83L48.96 2.83Q48.97 2.80 48.97 2.77L48.97 2.77L48.97 2.77Q48.97 2.73 48.99 2.70L48.99 2.70L48.99 2.70Q49.10 2.45 49.32 2.21L49.32 2.21L49.32 2.21Q49.55 1.97 49.83 1.90L49.83 1.90L49.85 1.90L49.85 1.90Q49.92 1.92 49.94 1.99L49.94 1.99L49.94 2.17L49.94 2.17Q50.05 2.09 50.13 2.07L50.13 2.07L50.13 2.07Q50.20 2.06 50.23 2.17L50.23 2.17L50.23 2.17Q50.26 2.39 50.26 2.59L50.26 2.59L50.26 2.59Q50.26 2.79 50.33 2.80L50.33 2.80L50.09 3.08L50.09 3.08Q50.06 3.28 50.01 3.46L50.01 3.46L50.01 3.46Q49.95 3.65 49.84 3.81L49.84 3.81L49.84 3.81Q49.81 3.85 49.77 3.91L49.77 3.91L49.77 3.91Q49.73 3.98 49.66 4.05L49.66 4.05L49.66 4.05Q49.64 4.06 49.64 4.07L49.64 4.07L49.64 4.09L49.63 4.10L49.63 4.10Q49.63 4.12 49.62 4.12L49.62 4.12L49.62 4.12Q49.62 4.12 49.62 4.13L49.62 4.13L49.62 4.13Q49.57 4.19 49.46 4.33L49.46 4.33L49.46 4.33Q49.35 4.48 49.22 4.62L49.22 4.62L49.22 4.62Q49.08 4.76 48.94 4.83L48.94 4.83L48.94 4.83Q48.80 4.90 48.72 4.82L48.72 4.82L48.72 4.82Q48.71 4.34 48.71 3.84L48.71 3.84L48.71 3.84Q48.71 3.33 48.89 2.88L48.89 2.88ZM57.48 2.84L57.48 2.84L57.48 2.84Q57.48 2.91 57.48 2.98L57.48 2.98L57.48 2.98Q57.47 3.05 57.46 3.12L57.46 3.12L57.46 3.12Q57.44 3.28 57.44 3.44L57.44 3.44L57.44 3.44Q57.44 3.60 57.44 3.74L57.44 3.74L57.44 3.74Q57.41 4.45 57.40 5.14L57.40 5.14L57.40 5.14Q57.39 5.82 57.36 6.52L57.36 6.52L57.36 6.52Q57.37 6.73 57.39 6.94L57.39 6.94L57.39 6.94Q57.41 7.14 57.44 7.34L57.44 7.34L57.47 7.32L57.47 7.32Q57.44 7.35 57.44 7.36L57.44 7.36L57.44 7.36Q57.44 7.48 57.46 7.53L57.46 7.53L57.46 7.53Q57.47 7.69 57.48 7.83L57.48 7.83L57.48 7.83Q57.48 7.98 57.51 8.13L57.51 8.13L57.60 8.72L57.60 8.72Q57.62 8.89 57.61 9.07L57.61 9.07L57.61 9.07Q57.60 9.25 57.61 9.42L57.61 9.42L57.61 9.42Q57.67 9.63 57.67 9.73L57.67 9.73L57.67 9.73Q57.65 9.81 57.55 9.96L57.55 9.96L57.55 9.96Q57.44 10.11 57.32 10.26L57.32 10.26L57.32 10.26Q57.19 10.40 57.05 10.49L57.05 10.49L57.05 10.49Q56.91 10.58 56.80 10.56L56.80 10.56L56.80 10.56Q56.76 10.58 56.70 10.56L56.70 10.56L56.70 10.56Q56.69 10.58 56.67 10.59L56.67 10.59L56.67 10.59Q56.66 10.60 56.64 10.63L56.64 10.63L56.64 10.53L56.64 10.53Q56.63 10.49 56.62 10.44L56.62 10.44L56.62 10.44Q56.60 10.39 56.59 10.33L56.59 10.33L56.59 10.33Q56.53 10.35 56.48 10.32L56.48 10.32L56.46 10.33L56.46 10.29L56.46 10.29Q56.34 9.87 56.29 9.38L56.29 9.38L56.29 9.38Q55.92 9.79 55.50 9.98L55.50 9.98L55.50 9.98Q54.85 10.30 54.26 10.45L54.26 10.45L54.26 10.45Q53.66 10.60 52.95 10.67L52.95 10.67L52.95 10.67Q52.65 10.70 52.37 10.65L52.37 10.65L52.37 10.65Q52.08 10.60 51.83 10.47L51.83 10.47L51.83 10.47Q51.58 10.35 51.37 10.14L51.37 10.14L51.37 10.14Q51.17 9.94 51.06 9.66L51.06 9.66L51.06 9.66Q50.95 9.38 51.08 9.02L51.08 9.02L51.08 9.02Q51.21 8.65 51.45 8.30L51.45 8.30L51.45 8.30Q51.52 8.15 51.59 8.02L51.59 8.02L51.59 8.02Q51.66 7.88 51.72 7.78L51.72 7.78L51.72 7.78Q51.95 7.31 52.35 6.87L52.35 6.87L52.35 6.87Q52.75 6.44 53.22 6.08L53.22 6.08L53.22 6.08Q53.69 5.71 54.22 5.42L54.22 5.42L54.22 5.42Q54.74 5.14 55.23 4.96L55.23 4.96L55.23 4.96Q55.41 4.89 55.68 4.88L55.68 4.88L55.68 4.88Q55.94 4.87 56.21 4.93L56.21 4.93L56.21 4.93Q56.22 4.69 56.24 4.45L56.24 4.45L56.24 4.45Q56.25 4.21 56.28 3.98L56.28 3.98L56.28 3.98Q56.31 3.61 56.34 3.27L56.34 3.27L56.34 3.27Q56.36 2.93 56.45 2.60L56.45 2.60L56.45 2.60Q56.43 2.11 56.55 1.67L56.55 1.67L56.55 1.67Q56.66 1.23 57.09 0.88L57.09 0.88L57.09 0.88Q57.18 0.81 57.27 0.74L57.27 0.74L57.27 0.74Q57.37 0.67 57.48 0.67L57.48 0.67L57.48 0.67Q57.60 0.63 57.69 0.64L57.69 0.64L57.69 0.64Q57.78 0.71 57.79 0.91L57.79 0.91L57.79 0.91Q57.79 1.11 57.76 1.37L57.76 1.37L57.76 1.37Q57.78 1.51 57.76 1.69L57.76 1.69L57.76 1.69Q57.74 1.88 57.69 2.07L57.69 2.07L57.69 2.07Q57.65 2.27 57.60 2.46L57.60 2.46L57.60 2.46Q57.54 2.66 57.48 2.84ZM56.22 8.12L56.22 8.12L56.22 8.12Q56.15 7.62 56.13 7.12L56.13 7.12L56.13 7.12Q56.10 6.62 56.13 6.12L56.13 6.12L56.06 6.12L55.97 6.17L55.97 6.17Q55.96 6.17 55.96 6.19L55.96 6.19L55.96 6.19Q55.93 6.17 55.89 6.13L55.89 6.13L55.89 6.13Q55.82 6.15 55.75 6.15L55.75 6.15L55.75 6.15Q55.68 6.16 55.61 6.16L55.61 6.16L55.61 6.16Q55.27 6.23 54.88 6.38L54.88 6.38L54.88 6.38Q54.49 6.54 54.12 6.75L54.12 6.75L54.12 6.75Q53.75 6.97 53.43 7.24L53.43 7.24L53.43 7.24Q53.12 7.50 52.92 7.80L52.92 7.80L52.92 7.80Q52.72 8.11 52.70 8.42L52.70 8.42L52.70 8.42Q52.67 8.74 52.86 9.06L52.86 9.06L52.86 9.06Q53.00 9.28 53.26 9.29L53.26 9.29L53.26 9.29Q53.51 9.30 53.72 9.25L53.72 9.25L53.72 9.25Q53.90 9.21 54.21 9.11L54.21 9.11L54.21 9.11Q54.52 9.00 54.87 8.84L54.87 8.84L54.87 8.84Q55.23 8.68 55.59 8.49L55.59 8.49L55.59 8.49Q55.94 8.30 56.22 8.12ZM52.70 7.34L52.70 7.34L52.70 7.34Q52.60 7.45 52.48 7.59L52.48 7.59L52.48 7.59Q52.36 7.73 52.25 7.88L52.25 7.88L52.25 7.88Q52.19 8.02 52.16 8.16L52.16 8.16L52.16 8.16Q52.51 7.67 53.03 7.15L53.03 7.15L53.03 7.15Q53.54 6.64 54.14 6.22L54.14 6.22L54.14 6.22Q53.84 6.30 53.52 6.54L53.52 6.54L53.52 6.54Q53.19 6.79 52.70 7.34ZM58.86 6.82L58.86 6.82L58.86 6.82Q59.05 6.48 59.31 6.17L59.31 6.17L59.31 6.17Q59.57 5.87 59.87 5.62L59.87 5.62L59.87 5.62Q60.17 5.38 60.51 5.21L60.51 5.21L60.51 5.21Q60.84 5.05 61.18 5.00L61.18 5.00L61.18 5.00Q61.57 4.73 62.01 4.55L62.01 4.55L62.01 4.55Q62.45 4.37 62.76 4.52L62.76 4.52L62.76 4.52Q63.15 4.75 63.38 5.05L63.38 5.05L63.38 5.05Q63.53 5.10 63.66 5.18L63.66 5.18L63.66 5.18Q63.70 5.22 63.74 5.26L63.74 5.26L63.74 5.26Q63.78 5.31 63.83 5.36L63.83 5.36L63.83 5.36Q63.98 5.22 64.11 5.17L64.11 5.17L64.11 5.17Q64.23 5.11 64.26 5.25L64.26 5.25L64.26 5.25Q64.32 5.66 64.33 6.05L64.33 6.05L64.33 6.05Q64.34 6.45 64.33 6.86L64.33 6.86L64.33 6.86Q64.34 6.92 64.35 6.96L64.35 6.96L64.35 6.96Q64.36 7 64.36 7.04L64.36 7.04L64.36 7.04Q64.36 7.31 64.39 7.60L64.39 7.60L64.39 7.60Q64.43 7.90 64.30 8.12L64.30 8.12L64.30 8.12Q64.30 8.19 64.30 8.27L64.30 8.27L64.30 8.27Q64.29 8.34 64.29 8.41L64.29 8.41L64.29 8.41Q64.36 8.95 64.37 9.39L64.37 9.39L64.37 9.39Q64.40 9.53 64.42 9.67L64.42 9.67L64.42 9.67Q64.44 9.80 64.46 9.93L64.46 9.93L64.46 9.93Q64.47 10.01 64.53 10.08L64.53 10.08L64.47 10.14L64.47 10.14Q64.47 10.39 64.41 10.62L64.41 10.62L64.41 10.62Q64.36 10.85 64.19 11.06L64.19 11.06L64.19 11.06Q64.15 11.10 64.06 11.19L64.06 11.19L64.06 11.19Q63.97 11.28 63.86 11.37L63.86 11.37L63.86 11.37Q63.76 11.45 63.66 11.49L63.66 11.49L63.66 11.49Q63.56 11.52 63.49 11.45L63.49 11.45L63.49 11.45Q63.48 11.44 63.48 11.42L63.48 11.42L63.48 11.42Q63.48 11.42 63.46 11.41L63.46 11.41L63.46 11.41Q63.45 11.41 63.43 11.42L63.43 11.42L63.39 11.42L63.39 11.42Q63.29 11.42 63.27 11.40L63.27 11.40L63.27 11.40Q63.20 11.19 63.20 10.91L63.20 10.91L63.20 10.91Q63.20 10.64 63.17 10.44L63.17 10.44L63.17 10.44Q63.14 10.23 63.12 10.02L63.12 10.02L63.12 10.02Q63.10 9.81 63.07 9.59L63.07 9.59L63.07 9.59Q62.71 9.83 62.27 10.00L62.27 10.00L62.27 10.00Q61.84 10.16 61.35 10.30L61.35 10.30L61.35 10.30Q61.26 10.33 61.19 10.35L61.19 10.35L61.19 10.35Q61.11 10.37 61.03 10.40L61.03 10.40L61.03 10.40Q60.82 10.51 60.60 10.61L60.60 10.61L60.60 10.61Q60.38 10.70 60.16 10.74L60.16 10.74L60.16 10.74Q59.95 10.78 59.74 10.75L59.74 10.75L59.74 10.75Q59.53 10.72 59.32 10.57L59.32 10.57L59.32 10.57Q58.94 10.30 58.63 9.93L58.63 9.93L58.63 9.93Q58.32 9.56 58.17 9.13L58.17 9.13L58.17 9.13Q58.11 8.99 58.13 8.82L58.13 8.82L58.13 8.82Q58.14 8.65 58.20 8.47L58.20 8.47L58.20 8.47Q58.11 8.13 58.17 7.92L58.17 7.92L58.17 7.92Q58.25 7.62 58.44 7.34L58.44 7.34L58.44 7.34Q58.62 7.07 58.86 6.82ZM60.38 9.21L60.38 9.21L60.38 9.21Q60.55 9.24 60.87 9.21L60.87 9.21L60.87 9.21Q61.19 9.17 61.57 9.07L61.57 9.07L61.57 9.07Q61.95 8.97 62.33 8.82L62.33 8.82L62.33 8.82Q62.71 8.67 62.97 8.47L62.97 8.47L62.97 8.47Q62.94 8.15 62.92 7.81L62.92 7.81L62.92 7.81Q62.90 7.48 62.87 7.14L62.87 7.14L62.87 7.14Q62.86 7.03 62.86 6.92L62.86 6.92L62.86 6.92Q62.86 6.79 62.85 6.68L62.85 6.68L62.79 6.72L62.79 6.72Q62.78 6.65 62.78 6.57L62.78 6.57L62.78 6.57Q62.78 6.48 62.78 6.41L62.78 6.41L62.78 6.41Q62.75 6.34 62.71 6.28L62.71 6.28L62.71 6.28Q62.68 6.22 62.65 6.15L62.65 6.15L62.52 6.26L62.52 6.26Q62.48 6.19 62.48 6.10L62.48 6.10L62.48 6.10Q62.48 6.01 62.45 5.94L62.45 5.94L62.45 5.94Q62.20 5.85 61.98 5.80L61.98 5.80L61.98 5.80Q61.75 5.75 61.54 5.74L61.54 5.74L61.54 5.74Q61.35 5.74 61.16 5.77L61.16 5.77L61.16 5.77Q60.97 5.80 60.77 5.84L60.77 5.84L60.77 5.84Q60.21 6.06 59.67 6.82L59.67 6.82L59.67 6.82Q59.47 7.06 59.29 7.39L59.29 7.39L59.29 7.39Q59.26 7.81 59.37 8.22L59.37 8.22L59.37 8.22Q59.46 8.34 59.56 8.51L59.56 8.51L59.56 8.51Q59.67 8.68 59.79 8.83L59.79 8.83L59.79 8.83Q59.92 8.97 60.07 9.09L60.07 9.09L60.07 9.09Q60.21 9.20 60.38 9.21Z"></path></g><defs data-v-423bf9ae=""><linearGradient data-v-423bf9ae="" gradientTransform="rotate(25)" id="dfb135f9-3eb1-426d-9cd0-cc83976b3a94" x1="0%" y1="0%" x2="100%" y2="0%"><stop data-v-423bf9ae="" offset="0%" style="stop-color: rgb(0, 21, 214); stop-opacity: 1;"></stop><stop data-v-423bf9ae="" offset="100%" style="stop-color: rgb(9, 137, 251); stop-opacity: 1;"></stop></linearGradient></defs><g data-v-423bf9ae="" id="0eb68ce6-2925-4ef6-9d7b-31210765568d" transform="matrix(1.0477298998986153,0,0,1.0477298998986153,-4.415355688317483,-7.338882307487687)" stroke="none" fill="url(#dfb135f9-3eb1-426d-9cd0-cc83976b3a94)"><path d="M83.3 20c-1.3-2.7-3.5-4.7-6.4-5.9-1.9-.8-10-3.9-15.2-5.8-1.1-.7-2.2-1.2-3-1.2h-.1-.1-.1c-2.1.5-5.7 1-9.7 1.3-2 .1-4-.2-5.7-.5-1.5-.3-3-.5-4.1-.4-1.5.2-2.1.7-2.6 1.2 0 .1-.1.3-.3.4-1.3.5-2.7 1-4.1 1.5-4.8 1.8-9.7 3.6-12.2 5.2C15.3 18.6 5 39.7 5 42c0 3.1 13.2 8.8 15.2 8.8.3 0 .6-.1.8-.3.5-.6 1-1.6 1.4-2.8.2-.5.4-1.1.7-1.6C24.3 51.5 25 63 22.4 87c-.1 1-.2 1.6-.2 1.8 0 .6.2 1.2.7 1.7 2 2.1 8.4 2.5 19.6 2.5H51.4c17.9 0 24.7-.3 24.8-3.2.1-2.4-.4-8.5-.9-15-.4-5.2-.8-10.6-1-14.1-.2-6.7-.1-10.4 1.4-14.8.9 1.5 1.7 2.8 2.6 4.3.2.3.5.5.8.5h.2c6.9 0 15.2-5.5 15.7-7.1.2-.7.3-1-8.1-16.7-1.7-3.4-3.2-6.1-3.6-6.9zM42.7 9.9c1.8.3 4 .7 6.2.5 3.2-.2 6.1-.6 8.3-1-1.7 3.9-5.3 5.3-8.3 5.3-3.2 0-6.8-1.6-8.3-5.2.6.1 1.3.2 2.1.4zm36.9 38.5c-1-1.5-1.8-2.9-2.8-4.6l-.6-1c-.2-.3-.5-.5-.9-.5s-.7.3-.8.6c-2.2 5.8-2.5 9.6-2.2 17.6.1 3.6.6 9 1 14.2.5 6 1 12.3.9 14.6-1.5 1.4-13.8 1.4-22.8 1.4H42.5c-5.3 0-16.4 0-18.1-1.9-.1-.1-.1-.2-.1-.3 0-.2.1-.7.2-1.6 2.4-22.4 2.4-37.1 0-43.8-.1-.3-.4-.6-.7-.6h-.2c-.2 0-.5.1-.7.3-1 .9-1.6 2.4-2.2 3.9-.3.7-.5 1.3-.8 1.8-3-.4-12.1-5-12.9-6.6.4-2.5 10.3-22.2 13.8-24.4 2.3-1.5 7.2-3.3 11.8-5 1.4-.5 2.9-1.1 4.2-1.6.1 0 .1-.1.2-.1.3-.2.5-.4.7-.6.2-.2.4-.4.7-.5 1.7 4.8 6.3 7 10.4 7 4.9 0 9-2.9 10.5-7.4.4.1.8.3 1.3.7.1 0 .1.1.2.1 5 1.9 13.3 5 15.2 5.8 2.5 1 4.3 2.7 5.3 4.9.4.9 1.8 3.5 3.5 6.7 2.7 5 7.1 13.3 7.9 15.2-1.1 1.3-7.3 5.6-13.1 5.7z"></path></g><!----></svg>